<svg xmlns="http://www.w3.org/2000/svg" viewBox="0 0 64 64" role="img" aria-label="AutoGrade AI">
  <defs>
    <linearGradient id="mark-bg" x1="9" y1="8" x2="55" y2="56" gradientUnits="userSpaceOnUse">
      <stop offset="0" stop-color="#efffdc"/>
      <stop offset=".48" stop-color="#b7f07a"/>
      <stop offset="1" stop-color="#2d5016"/>
    </linearGradient>
    <linearGradient id="mark-paper" x1="19" y1="14" x2="45" y2="50" gradientUnits="userSpaceOnUse">
      <stop offset="0" stop-color="#ffffff"/>
      <stop offset="1" stop-color="#f4f6e9"/>
    </linearGradient>
    <filter id="soft-shadow" x="-20%" y="-20%" width="140%" height="140%" color-interpolation-filters="sRGB">
      <feDropShadow dx="0" dy="5" stdDeviation="4" flood-color="#1a3a0a" flood-opacity=".2"/>
    </filter>
  </defs>
  <rect width="64" height="64" rx="18" fill="#f7f5dc"/>
  <path d="M13 24.7c0-7.8 6.3-14.2 14.2-14.2h9.6c7.8 0 14.2 6.3 14.2 14.2v14.6c0 7.8-6.3 14.2-14.2 14.2h-9.6C19.3 53.5 13 47.2 13 39.3V24.7Z" fill="url(#mark-bg)" filter="url(#soft-shadow)"/>
  <path d="M23 17.5h15.2l7.8 7.9v20.1c0 2-1.6 3.6-3.6 3.6H23c-2 0-3.6-1.6-3.6-3.6V21.1c0-2 1.6-3.6 3.6-3.6Z" fill="url(#mark-paper)" stroke="#1f3f12" stroke-opacity=".16" stroke-width="1.3"/>
  <path d="M38.2 17.8v5.7c0 1.2 1 2.2 2.2 2.2h5.3" fill="none" stroke="#2d5016" stroke-opacity=".32" stroke-width="1.6" stroke-linecap="round"/>
  <path d="M26.1 31.4h11.8M26.1 37.2h7.2" fill="none" stroke="#6b7b5c" stroke-width="2.1" stroke-linecap="round"/>
  <path d="m28 43 3.4 3.3 8-9.2" fill="none" stroke="#2d5016" stroke-width="3.8" stroke-linecap="round" stroke-linejoin="round"/>
  <path d="M17.5 16.5v-4M17.5 22.5v-4M12.5 17.5h4M18.5 17.5h4M48.5 45.5v-3M48.5 51.5v-3M44.5 47.5h3M49.5 47.5h3" fill="none" stroke="#f6c453" stroke-width="2.1" stroke-linecap="round"/>
</svg>
